<svg id="visual" viewBox="0 0 960 300" width="960" height="300" xmlns="http://www.w3.org/2000/svg" xmlns:xlink="http://www.w3.org/1999/xlink" version="1.1"><rect x="0" y="0" width="960" height="300" fill="#D5DBEB"></rect><g transform="translate(463.43356666228703 153.76392932612382)"><path d="M67.6 -83C88.4 -63 106.7 -42.5 116.7 -16.1C126.7 10.3 128.3 42.6 113 61.7C97.8 80.7 65.6 86.4 35.5 97.2C5.4 108.1 -22.8 124 -43.4 117.4C-64 110.7 -77 81.3 -83.9 55.3C-90.8 29.2 -91.6 6.5 -91.1 -19.6C-90.7 -45.6 -89.1 -74.9 -73.7 -95.8C-58.3 -116.8 -29.1 -129.4 -2.9 -125.9C23.4 -122.5 46.7 -103 67.6 -83" fill="#0082C4"></path></g></svg>