<svg id="visual" viewBox="0 0 960 200" width="960" height="200" xmlns="http://www.w3.org/2000/svg" xmlns:xlink="http://www.w3.org/1999/xlink" version="1.1"><rect x="0" y="0" width="960" height="200" fill="#D5DBEB"></rect><path d="M0 42L10.7 40.2C21.3 38.3 42.7 34.7 64 32.3C85.3 30 106.7 29 128 34.3C149.3 39.7 170.7 51.3 192 51.5C213.3 51.7 234.7 40.3 256 34.2C277.3 28 298.7 27 320 32.7C341.3 38.3 362.7 50.7 384 54.3C405.3 58 426.7 53 448 49.8C469.3 46.7 490.7 45.3 512 46.5C533.3 47.7 554.7 51.3 576 48.7C597.3 46 618.7 37 640 35.8C661.3 34.7 682.7 41.3 704 45.2C725.3 49 746.7 50 768 49.2C789.3 48.3 810.7 45.7 832 42.3C853.3 39 874.7 35 896 34C917.3 33 938.7 35 949.3 36L960 37L960 201L949.3 201C938.7 201 917.3 201 896 201C874.7 201 853.3 201 832 201C810.7 201 789.3 201 768 201C746.7 201 725.3 201 704 201C682.7 201 661.3 201 640 201C618.7 201 597.3 201 576 201C554.7 201 533.3 201 512 201C490.7 201 469.3 201 448 201C426.7 201 405.3 201 384 201C362.7 201 341.3 201 320 201C298.7 201 277.3 201 256 201C234.7 201 213.3 201 192 201C170.7 201 149.3 201 128 201C106.7 201 85.3 201 64 201C42.7 201 21.3 201 10.7 201L0 201Z" fill="#005ddf"></path><path d="M0 89L10.7 87C21.3 85 42.7 81 64 75.3C85.3 69.7 106.7 62.3 128 60.7C149.3 59 170.7 63 192 66.2C213.3 69.3 234.7 71.7 256 73.5C277.3 75.3 298.7 76.7 320 75.2C341.3 73.7 362.7 69.3 384 66.8C405.3 64.3 426.7 63.7 448 68.3C469.3 73 490.7 83 512 83.3C533.3 83.7 554.7 74.3 576 74.3C597.3 74.3 618.7 83.7 640 88C661.3 92.3 682.7 91.7 704 87C725.3 82.3 746.7 73.7 768 72.3C789.3 71 810.7 77 832 81C853.3 85 874.7 87 896 86.5C917.3 86 938.7 83 949.3 81.5L960 80L960 201L949.3 201C938.7 201 917.3 201 896 201C874.7 201 853.3 201 832 201C810.7 201 789.3 201 768 201C746.7 201 725.3 201 704 201C682.7 201 661.3 201 640 201C618.7 201 597.3 201 576 201C554.7 201 533.3 201 512 201C490.7 201 469.3 201 448 201C426.7 201 405.3 201 384 201C362.7 201 341.3 201 320 201C298.7 201 277.3 201 256 201C234.7 201 213.3 201 192 201C170.7 201 149.3 201 128 201C106.7 201 85.3 201 64 201C42.7 201 21.3 201 10.7 201L0 201Z" fill="#0069db"></path><path d="M0 106L10.7 104.5C21.3 103 42.7 100 64 100.3C85.3 100.7 106.7 104.3 128 103C149.3 101.7 170.7 95.3 192 96.7C213.3 98 234.7 107 256 112.7C277.3 118.3 298.7 120.7 320 121.8C341.3 123 362.7 123 384 117.2C405.3 111.3 426.7 99.7 448 98.2C469.3 96.7 490.7 105.3 512 109.8C533.3 114.3 554.7 114.7 576 114.8C597.3 115 618.7 115 640 114C661.3 113 682.7 111 704 109.5C725.3 108 746.7 107 768 109.8C789.3 112.7 810.7 119.3 832 116C853.3 112.7 874.7 99.3 896 99.2C917.3 99 938.7 112 949.3 118.5L960 125L960 201L949.3 201C938.7 201 917.3 201 896 201C874.7 201 853.3 201 832 201C810.7 201 789.3 201 768 201C746.7 201 725.3 201 704 201C682.7 201 661.3 201 640 201C618.7 201 597.3 201 576 201C554.7 201 533.3 201 512 201C490.7 201 469.3 201 448 201C426.7 201 405.3 201 384 201C362.7 201 341.3 201 320 201C298.7 201 277.3 201 256 201C234.7 201 213.3 201 192 201C170.7 201 149.3 201 128 201C106.7 201 85.3 201 64 201C42.7 201 21.3 201 10.7 201L0 201Z" fill="#0073d6"></path><path d="M0 121L10.7 121.5C21.3 122 42.7 123 64 124.2C85.3 125.3 106.7 126.7 128 130.2C149.3 133.7 170.7 139.3 192 138.7C213.3 138 234.7 131 256 128C277.3 125 298.7 126 320 128.7C341.3 131.3 362.7 135.7 384 140C405.3 144.3 426.7 148.7 448 146.3C469.3 144 490.7 135 512 130.2C533.3 125.3 554.7 124.7 576 126C597.3 127.3 618.7 130.7 640 134.7C661.3 138.7 682.7 143.3 704 141.8C725.3 140.3 746.7 132.7 768 129.2C789.3 125.7 810.7 126.3 832 129.2C853.3 132 874.7 137 896 138.5C917.3 140 938.7 138 949.3 137L960 136L960 201L949.3 201C938.7 201 917.3 201 896 201C874.7 201 853.3 201 832 201C810.7 201 789.3 201 768 201C746.7 201 725.3 201 704 201C682.7 201 661.3 201 640 201C618.7 201 597.3 201 576 201C554.7 201 533.3 201 512 201C490.7 201 469.3 201 448 201C426.7 201 405.3 201 384 201C362.7 201 341.3 201 320 201C298.7 201 277.3 201 256 201C234.7 201 213.3 201 192 201C170.7 201 149.3 201 128 201C106.7 201 85.3 201 64 201C42.7 201 21.3 201 10.7 201L0 201Z" fill="#007bce"></path><path d="M0 151L10.7 153.3C21.3 155.7 42.7 160.3 64 163.3C85.3 166.3 106.7 167.7 128 165.2C149.3 162.7 170.7 156.3 192 153.2C213.3 150 234.7 150 256 153.3C277.3 156.7 298.7 163.3 320 166.8C341.3 170.3 362.7 170.7 384 167.2C405.3 163.7 426.7 156.3 448 158.2C469.3 160 490.7 171 512 172C533.3 173 554.7 164 576 159.2C597.3 154.3 618.7 153.7 640 154.3C661.3 155 682.7 157 704 159.2C725.3 161.3 746.7 163.7 768 165.3C789.3 167 810.7 168 832 167.8C853.3 167.7 874.7 166.3 896 167.2C917.3 168 938.7 171 949.3 172.5L960 174L960 201L949.3 201C938.7 201 917.3 201 896 201C874.7 201 853.3 201 832 201C810.7 201 789.3 201 768 201C746.7 201 725.3 201 704 201C682.7 201 661.3 201 640 201C618.7 201 597.3 201 576 201C554.7 201 533.3 201 512 201C490.7 201 469.3 201 448 201C426.7 201 405.3 201 384 201C362.7 201 341.3 201 320 201C298.7 201 277.3 201 256 201C234.7 201 213.3 201 192 201C170.7 201 149.3 201 128 201C106.7 201 85.3 201 64 201C42.7 201 21.3 201 10.7 201L0 201Z" fill="#0082c4"></path></svg>