<svg id="visual" viewBox="0 0 960 300" width="960" height="300" xmlns="http://www.w3.org/2000/svg" xmlns:xlink="http://www.w3.org/1999/xlink" version="1.1"><rect x="0" y="0" width="960" height="300" fill="#D5DBEB"></rect><path d="M0 32L14.5 32.5C29 33 58 34 87.2 47.3C116.3 60.7 145.7 86.3 174.8 87.8C204 89.3 233 66.7 262 67.8C291 69 320 94 349 100.8C378 107.7 407 96.3 436.2 80.8C465.3 65.3 494.7 45.7 523.8 38C553 30.3 582 34.7 611 38.8C640 43 669 47 698 58C727 69 756 87 785.2 92.5C814.3 98 843.7 91 872.8 90C902 89 931 94 945.5 96.5L960 99" fill="none" stroke-linecap="round" stroke-linejoin="miter" stroke="#F07716" stroke-width="40"></path></svg>