<svg id="visual" viewBox="0 0 960 300" width="960" height="300" xmlns="http://www.w3.org/2000/svg" xmlns:xlink="http://www.w3.org/1999/xlink" version="1.1"><rect x="0" y="0" width="960" height="300" fill="#D5DBEB"></rect><g transform="translate(488.1704028377427 144.25794055335967)"><path d="M45.5 -85.1C57.6 -71.7 65.2 -56.9 74.8 -42.4C84.5 -28 96.2 -14 99.1 1.7C102 17.3 96 34.7 87 50.3C78 65.8 66 79.7 51 94.9C36 110 18 126.5 -0.6 127.5C-19.2 128.5 -38.3 114.1 -60 102.7C-81.6 91.4 -105.8 83.2 -113.4 66.6C-120.9 50 -112 25 -101.1 6.2C-90.3 -12.5 -77.6 -25 -71.2 -43.6C-64.8 -62.2 -64.7 -87 -53.8 -101.1C-43 -115.1 -21.5 -118.6 -2.4 -114.4C16.7 -110.2 33.3 -98.4 45.5 -85.1" fill="#0082C4"></path></g></svg>