<svg id="visual" viewBox="0 0 960 300" width="960" height="300" xmlns="http://www.w3.org/2000/svg" xmlns:xlink="http://www.w3.org/1999/xlink" version="1.1"><rect x="0" y="0" width="960" height="300" fill="#D5DBEB"></rect><g transform="translate(489.5977013678043 149.83267637048957)"><path d="M57.1 -98.3C71.3 -90.8 78.1 -69.9 85.3 -51.3C92.6 -32.7 100.3 -16.3 104.8 2.6C109.2 21.5 110.5 43 103.1 61.3C95.6 79.7 79.6 94.8 61 99.9C42.3 105 21.2 100 0.3 99.4C-20.5 98.8 -41 102.7 -62.7 99.3C-84.3 96 -107.1 85.5 -118.5 67.8C-129.9 50 -130 25 -121.9 4.7C-113.8 -15.7 -97.6 -31.3 -84.8 -46.6C-71.9 -61.9 -62.5 -76.9 -48.9 -84.7C-35.3 -92.5 -17.7 -93.1 1.9 -96.4C21.5 -99.7 43 -105.7 57.1 -98.3" fill="#0082C4"></path></g></svg>