<svg id="visual" viewBox="0 0 960 300" width="960" height="300" xmlns="http://www.w3.org/2000/svg" xmlns:xlink="http://www.w3.org/1999/xlink" version="1.1"><rect x="0" y="0" width="960" height="300" fill="#D5DBEB"></rect><g transform="translate(498.38789294398157 166.59981393815303)"><path d="M74.5 -98.2C89.9 -75.9 91.1 -46.1 93.1 -18.8C95 8.5 97.8 33.2 88.7 53.5C79.7 73.7 59 89.5 36.6 95.3C14.3 101.2 -9.8 97.1 -36.5 91.3C-63.3 85.5 -92.7 78 -111.2 58.3C-129.7 38.5 -137.2 6.5 -127.7 -18.2C-118.2 -42.8 -91.5 -60.1 -67.4 -80.8C-43.3 -101.6 -21.6 -125.8 4 -130.5C29.6 -135.2 59.1 -120.5 74.5 -98.2" fill="#0082C4"></path></g></svg>